<svg width="32" height="32" viewBox="0 0 32 32" fill="none" xmlns="http://www.w3.org/2000/svg">
<g clip-path="url(#clip0_831_3)">
<path d="M31.09 13.1161C31.2766 14.19 31.3696 15.2781 31.368 16.3681C31.368 21.2361 29.628 25.3521 26.6 28.1381H26.604C23.956 30.5841 20.316 32.0001 16 32.0001C11.7565 32.0001 7.68687 30.3144 4.68629 27.3138C1.68571 24.3132 0 20.2435 0 16.0001C0 11.7566 1.68571 7.68695 4.68629 4.68637C7.68687 1.68579 11.7565 7.92107e-05 16 7.92107e-05C19.9719 -0.0464375 23.8077 1.44574 26.704 4.16408L22.136 8.73208C20.4848 7.15803 18.281 6.29606 16 6.33208C11.826 6.33208 8.28 9.14808 7.016 12.9401C6.34581 14.9271 6.34581 17.0791 7.016 19.0661H7.022C8.292 22.8521 11.832 25.6681 16.006 25.6681C18.162 25.6681 20.014 25.1161 21.45 24.1401H21.444C22.2778 23.5877 22.9911 22.8721 23.5407 22.0364C24.0903 21.2008 24.465 20.2625 24.642 19.2781H16V13.1181L31.09 13.1161Z" fill="#F2F2F2"/>
</g>
<defs>
<clipPath id="clip0_831_3">
<rect width="32" height="32" fill="white"/>
</clipPath>
</defs>
</svg>
