<svg width="32" height="32" viewBox="0 0 32 32" fill="none" xmlns="http://www.w3.org/2000/svg">
<path d="M30.6088 21.1783C29.912 20.342 29.1203 19.5924 28.3546 18.8675C28.0823 18.6097 27.8008 18.3432 27.5294 18.0781C26.7504 17.3164 26.722 17.0302 27.3388 16.165C27.7656 15.5686 28.2181 14.9714 28.6556 14.3939C29.0525 13.8699 29.463 13.328 29.8564 12.7843L29.9371 12.6726C30.689 11.6322 31.4666 10.5565 31.8804 9.2588C31.9878 8.91643 32.1007 8.41261 31.8427 7.99132C31.5849 7.57038 31.0848 7.44195 30.7309 7.38197C30.5559 7.35229 30.3821 7.34824 30.2208 7.34824L25.297 7.34471L25.2563 7.34436C24.5119 7.34436 24.0102 7.69519 23.7227 8.41701C23.4482 9.10669 23.1467 9.84111 22.8026 10.5394C22.118 11.93 21.2485 13.5315 19.9902 14.8673L19.937 14.9241C19.7884 15.0838 19.6201 15.2646 19.497 15.2646C19.4782 15.2646 19.4577 15.261 19.4344 15.2537C19.1738 15.1521 18.9989 14.5212 19.0068 14.2277C19.0069 14.2237 19.007 14.2196 19.007 14.2156L19.0035 8.52465C19.0035 8.50492 19.0021 8.48536 18.9996 8.46581C18.8743 7.54069 18.5969 6.96482 17.5485 6.7595C17.5207 6.75395 17.4922 6.75122 17.4639 6.75122H12.3441C11.5099 6.75122 11.0503 7.09025 10.6183 7.59768C10.5017 7.73333 10.2589 8.01571 10.3792 8.35826C10.5013 8.70592 10.8976 8.78026 11.0266 8.80439C11.6672 8.9263 12.0282 9.31808 12.1305 10.0027C12.309 11.1914 12.3309 12.4602 12.1995 13.9957C12.1629 14.4225 12.0904 14.7521 11.9709 15.0337C11.9432 15.0994 11.8448 15.3139 11.7445 15.314C11.7126 15.314 11.6204 15.3014 11.4524 15.1857C11.0553 14.9136 10.7647 14.5254 10.4259 14.0458C9.27346 12.417 8.30624 10.6228 7.46859 8.55935C7.15792 7.79974 6.57773 7.37448 5.83415 7.36198C5.01711 7.34956 4.27635 7.34357 3.56985 7.34357C2.7979 7.34357 2.08224 7.3507 1.38341 7.36524C0.785159 7.3758 0.371354 7.55514 0.153617 7.89865C-0.0644723 8.24244 -0.0502912 8.69403 0.195808 9.24066C2.16583 13.6203 3.95203 16.8047 5.98759 19.5662C7.41389 21.4986 8.8445 22.8361 10.4893 23.7751C12.2222 24.7665 14.1643 25.2485 16.4262 25.2485C16.6826 25.2485 16.9477 25.2422 17.215 25.2297C18.5294 25.1657 19.017 24.6899 19.0787 23.4102C19.108 22.7562 19.1795 22.0703 19.501 21.4854C19.704 21.1168 19.8931 21.1168 19.9553 21.1168C20.0751 21.1168 20.2236 21.172 20.3831 21.2753C20.6692 21.462 20.9145 21.7122 21.1156 21.9307C21.3049 22.1383 21.4921 22.348 21.6794 22.5578C22.0837 23.0107 22.5018 23.4788 22.9385 23.9228C23.8943 24.8953 24.9473 25.3231 26.1568 25.2302H30.6711C30.6807 25.2302 30.6904 25.2299 30.7 25.2293C31.1498 25.1996 31.5394 24.95 31.7689 24.5447C32.0531 24.0425 32.0474 23.4019 31.7536 22.8306C31.4202 22.1846 30.9877 21.6327 30.6088 21.1783Z" fill="#F2F2F2"/>
</svg>
