<svg width="100" height="100" viewBox="0 0 100 100" fill="none" xmlns="http://www.w3.org/2000/svg">
<mask id="path-1-inside-1_922_1619" fill="white">
<path d="M87.9068 50C94.5857 50 100.144 44.5085 98.5446 38.0241C96.7713 30.8361 93.411 24.081 88.6505 18.2803C81.312 9.33833 71.1 3.2175 59.7545 0.960736C48.409 -1.29602 36.632 0.45093 26.4302 5.90394C16.2283 11.3569 8.23282 20.1786 3.80602 30.8658C-0.620768 41.553 -1.20496 53.4446 2.15298 64.5142C5.51093 75.5839 12.6032 85.1468 22.2215 91.5735C31.8397 98.0002 43.3888 100.893 54.9009 99.7592C62.3687 99.0237 69.5213 96.6232 75.858 92.7945C81.5744 89.3405 81.5268 81.5268 76.8041 76.8042C72.0815 72.0815 64.3906 72.4468 58.0443 74.5282C56.2655 75.1116 54.4173 75.5034 52.5302 75.6893C46.5868 76.2747 40.6244 74.7811 35.6587 71.4632C30.6931 68.1453 27.0315 63.2082 25.2979 57.4933C23.5643 51.7783 23.8659 45.6391 26.1514 40.1216C28.4368 34.6041 32.5646 30.0497 37.8316 27.2344C43.0985 24.4192 49.1786 23.5173 55.036 24.6824C60.8933 25.8475 66.1655 29.0075 69.9542 33.624C71.1572 35.0899 72.187 36.6738 73.0322 38.3441C76.0479 44.3034 81.2279 50 87.9068 50Z"/>
</mask>
<path d="M87.9068 50C94.5857 50 100.144 44.5085 98.5446 38.0241C96.7713 30.8361 93.411 24.081 88.6505 18.2803C81.312 9.33833 71.1 3.2175 59.7545 0.960736C48.409 -1.29602 36.632 0.45093 26.4302 5.90394C16.2283 11.3569 8.23282 20.1786 3.80602 30.8658C-0.620768 41.553 -1.20496 53.4446 2.15298 64.5142C5.51093 75.5839 12.6032 85.1468 22.2215 91.5735C31.8397 98.0002 43.3888 100.893 54.9009 99.7592C62.3687 99.0237 69.5213 96.6232 75.858 92.7945C81.5744 89.3405 81.5268 81.5268 76.8041 76.8042C72.0815 72.0815 64.3906 72.4468 58.0443 74.5282C56.2655 75.1116 54.4173 75.5034 52.5302 75.6893C46.5868 76.2747 40.6244 74.7811 35.6587 71.4632C30.6931 68.1453 27.0315 63.2082 25.2979 57.4933C23.5643 51.7783 23.8659 45.6391 26.1514 40.1216C28.4368 34.6041 32.5646 30.0497 37.8316 27.2344C43.0985 24.4192 49.1786 23.5173 55.036 24.6824C60.8933 25.8475 66.1655 29.0075 69.9542 33.624C71.1572 35.0899 72.187 36.6738 73.0322 38.3441C76.0479 44.3034 81.2279 50 87.9068 50Z" fill="url(#paint0_linear_922_1619)" stroke="#222222" stroke-width="4" mask="url(#path-1-inside-1_922_1619)"/>
<path d="M2.5 50C1.11929 50 -0.00652035 51.1202 0.0624646 52.4992C0.596511 63.1746 4.54079 73.4233 11.3495 81.7197C18.688 90.6617 28.9 96.7825 40.2455 99.0393C51.591 101.296 63.368 99.5491 73.5698 94.0961C83.7717 88.6431 91.7672 79.8214 96.194 69.1342C100.621 58.4469 101.205 46.5554 97.847 35.4858C94.4891 24.4161 87.3968 14.8532 77.7785 8.42651C68.1603 1.99981 56.6112 -0.893077 45.0991 0.240765C34.4182 1.29275 24.3823 5.75061 16.456 12.9216C15.4321 13.848 15.4361 15.4361 16.4124 16.4124C17.3887 17.3887 18.9673 17.3829 19.9963 16.4623C27.1007 10.1062 36.0597 6.15527 45.5892 5.21669C55.9501 4.19623 66.3442 6.79983 75.0007 12.5839C83.6571 18.3679 90.0402 26.9745 93.0623 36.9372C96.0845 46.8999 95.5587 57.6023 91.5746 67.2207C87.5905 76.8392 80.3945 84.7787 71.2129 89.6865C62.0312 94.5942 51.4319 96.1664 41.2209 94.1353C31.01 92.1043 21.8192 86.5955 15.2145 78.5477C9.13981 71.1456 5.59857 62.0169 5.0694 52.4989C4.99276 51.1204 3.88071 50 2.5 50Z" fill="url(#paint1_radial_922_1619)"/>
<defs>
<linearGradient id="paint0_linear_922_1619" x1="50" y1="0" x2="50" y2="100" gradientUnits="userSpaceOnUse">
<stop stop-color="#424242"/>
<stop stop-color="#E93827"/>
<stop offset="0.0001" stop-color="#585555" stop-opacity="0.8"/>
<stop offset="0.5" stop-color="#444242" stop-opacity="0.8"/>
<stop offset="1" stop-color="#1D1A1B" stop-opacity="0.6"/>
</linearGradient>
<radialGradient id="paint1_radial_922_1619" cx="0" cy="0" r="1" gradientUnits="userSpaceOnUse" gradientTransform="translate(50 50) rotate(90) scale(50)">
<stop offset="0.791667" stop-color="#494646"/>
<stop offset="1" stop-color="white"/>
</radialGradient>
</defs>
</svg>
