<svg width="26" height="26" viewBox="0 0 26 26" fill="none" xmlns="http://www.w3.org/2000/svg">
<path d="M26 13C26 13 21.125 4.0625 13 4.0625C4.875 4.0625 0 13 0 13C0 13 4.875 21.9375 13 21.9375C21.125 21.9375 26 13 26 13ZM1.90612 13C2.69184 11.8058 3.59554 10.6936 4.60362 9.68012C6.695 7.5855 9.555 5.6875 13 5.6875C16.445 5.6875 19.3034 7.5855 21.398 9.68012C22.4061 10.6936 23.3098 11.8058 24.0955 13C24.0012 13.1414 23.8973 13.2974 23.7786 13.468C23.2343 14.248 22.4299 15.288 21.398 16.3199C19.3034 18.4145 16.4434 20.3125 13 20.3125C9.555 20.3125 6.69663 18.4145 4.602 16.3199C3.59392 15.3064 2.69185 14.1942 1.90612 13Z" fill="#F2F2F2"/>
<path d="M13 8.9375C11.9226 8.9375 10.8892 9.36551 10.1274 10.1274C9.36551 10.8892 8.9375 11.9226 8.9375 13C8.9375 14.0774 9.36551 15.1108 10.1274 15.8726C10.8892 16.6345 11.9226 17.0625 13 17.0625C14.0774 17.0625 15.1108 16.6345 15.8726 15.8726C16.6345 15.1108 17.0625 14.0774 17.0625 13C17.0625 11.9226 16.6345 10.8892 15.8726 10.1274C15.1108 9.36551 14.0774 8.9375 13 8.9375ZM7.3125 13C7.3125 11.4916 7.91172 10.0449 8.97833 8.97833C10.0449 7.91172 11.4916 7.3125 13 7.3125C14.5084 7.3125 15.9551 7.91172 17.0217 8.97833C18.0883 10.0449 18.6875 11.4916 18.6875 13C18.6875 14.5084 18.0883 15.9551 17.0217 17.0217C15.9551 18.0883 14.5084 18.6875 13 18.6875C11.4916 18.6875 10.0449 18.0883 8.97833 17.0217C7.91172 15.9551 7.3125 14.5084 7.3125 13Z" fill="#F2F2F2"/>
</svg>
